<svg xmlns="http://www.w3.org/2000/svg" width="453.543" height="453.543" viewBox="0 0 120 120" stroke="#000" stroke-width="2" xmlns:v="https://vecta.io/nano"><path d="M60.093 8.281v103.438"/><path d="M60.093 8.281l-45.5 51.177"/><path d="M60.093 8.281l-45.5 25.046"/><path d="M60.093 8.281l45.316 51.177"/><path d="M60.093 8.281l45.316 25.046"/><path d="M105.408 33.327v51.817M14.592 33.327v51.817"/><path d="M14.592 59.458h90.816"/><path d="M105.408 33.327L14.592 85.145"/><path d="M14.592 33.327l90.816 51.817m-45.315 26.575l-45.5-52.261"/><path d="M60.093 111.719l45.316-52.261"/><path d="M60.093 111.719l-45.5-26.574"/><path d="M60.093 111.719l45.316-26.574"/><g fill="#fff"><circle cx="60.093" cy="8.281" r="5"/><circle cx="60.093" cy="59.458" r="5"/><circle cx="60.093" cy="111.719" r="5"/><circle cx="14.592" cy="85.145" r="5"/><circle cx="14.592" cy="59.458" r="5"/><circle cx="14.592" cy="33.327" r="5"/><circle cx="105.408" cy="33.327" r="5"/><circle cx="105.408" cy="59.458" r="5"/><circle cx="105.408" cy="85.145" r="5"/></g></svg>